<?xml version="1.0" encoding="UTF-8" standalone="no"?>
<!DOCTYPE svg PUBLIC "-//W3C//DTD SVG 1.1//EN"
 "http://www.w3.org/Graphics/SVG/1.1/DTD/svg11.dtd">
<!-- Generated by graphviz version 2.38.0 (20140413.2041)
 -->
<!-- Title: controllers_diagram Pages: 1 -->
<svg width="538pt" height="643pt"
 viewBox="0.00 0.00 538.27 643.00" xmlns="http://www.w3.org/2000/svg" xmlns:xlink="http://www.w3.org/1999/xlink">
<g id="graph0" class="graph" transform="scale(1 1) rotate(0) translate(237.821 405.5)">
<title>controllers_diagram</title>
<polygon fill="none" stroke="none" points="-237.821,237.5 -237.821,-405.5 300.45,-405.5 300.45,237.5 -237.821,237.5"/>
<!-- _diagram_info -->
<g id="node1" class="node"><title>_diagram_info</title>
<text text-anchor="start" x="97.5503" y="138.9" font-family="Times,serif" font-size="13.00">Controllers diagram</text>
<text text-anchor="start" x="97.5503" y="151.9" font-family="Times,serif" font-size="13.00">Date: Nov 20 2015 &#45; 14:02</text>
<text text-anchor="start" x="97.5503" y="164.9" font-family="Times,serif" font-size="13.00">Migration version: 20151120125557</text>
<text text-anchor="start" x="97.5503" y="177.9" font-family="Times,serif" font-size="13.00">Generated by RailRoady 1.4.1</text>
<text text-anchor="start" x="97.5503" y="190.9" font-family="Times,serif" font-size="13.00">http://railroady.prestonlee.com</text>
</g>
<!-- ApplicationController -->
<g id="node2" class="node"><title>ApplicationController</title>
<path fill="none" stroke="black" d="M-221.821,233C-221.821,233 -106.179,233 -106.179,233 -100.179,233 -94.1792,227 -94.1792,221 -94.1792,221 -94.1792,153 -94.1792,153 -94.1792,147 -100.179,141 -106.179,141 -106.179,141 -221.821,141 -221.821,141 -227.821,141 -233.821,147 -233.821,153 -233.821,153 -233.821,221 -233.821,221 -233.821,227 -227.821,233 -221.821,233"/>
<text text-anchor="middle" x="-164" y="156.2" font-family="Times,serif" font-size="14.00">ApplicationController</text>
<polyline fill="none" stroke="black" points="-233.821,163 -94.1792,163 "/>
<polyline fill="none" stroke="black" points="-233.821,187 -94.1792,187 "/>
<polyline fill="none" stroke="black" points="-233.821,211 -94.1792,211 "/>
<text text-anchor="start" x="-225.821" y="226.2" font-family="Times,serif" font-size="14.00">_layout</text>
</g>
<!-- BikesController -->
<g id="node3" class="node"><title>BikesController</title>
<path fill="none" stroke="black" d="M-41.7173,-145C-41.7173,-145 39.7173,-145 39.7173,-145 45.7173,-145 51.7173,-151 51.7173,-157 51.7173,-157 51.7173,-349 51.7173,-349 51.7173,-355 45.7173,-361 39.7173,-361 39.7173,-361 -41.7173,-361 -41.7173,-361 -47.7173,-361 -53.7173,-355 -53.7173,-349 -53.7173,-349 -53.7173,-157 -53.7173,-157 -53.7173,-151 -47.7173,-145 -41.7173,-145"/>
<text text-anchor="middle" x="-1" y="-345.8" font-family="Times,serif" font-size="14.00">BikesController</text>
<polyline fill="none" stroke="black" points="-53.7173,-339 51.7173,-339 "/>
<text text-anchor="start" x="-45.7173" y="-323.8" font-family="Times,serif" font-size="14.00">create</text>
<text text-anchor="start" x="-45.7173" y="-309.8" font-family="Times,serif" font-size="14.00">destroy</text>
<text text-anchor="start" x="-45.7173" y="-295.8" font-family="Times,serif" font-size="14.00">edit</text>
<text text-anchor="start" x="-45.7173" y="-281.8" font-family="Times,serif" font-size="14.00">index</text>
<text text-anchor="start" x="-45.7173" y="-267.8" font-family="Times,serif" font-size="14.00">new</text>
<text text-anchor="start" x="-45.7173" y="-253.8" font-family="Times,serif" font-size="14.00">show</text>
<text text-anchor="start" x="-45.7173" y="-239.8" font-family="Times,serif" font-size="14.00">update</text>
<polyline fill="none" stroke="black" points="-53.7173,-233 51.7173,-233 "/>
<polyline fill="none" stroke="black" points="-53.7173,-209 51.7173,-209 "/>
<text text-anchor="start" x="-45.7173" y="-193.8" font-family="Times,serif" font-size="14.00">_layout</text>
<text text-anchor="start" x="-45.7173" y="-179.8" font-family="Times,serif" font-size="14.00">bike_params</text>
<text text-anchor="start" x="-45.7173" y="-165.8" font-family="Times,serif" font-size="14.00">set_bike</text>
<text text-anchor="start" x="-45.7173" y="-151.8" font-family="Times,serif" font-size="14.00">set_customer</text>
</g>
<!-- CustomersController -->
<g id="node4" class="node"><title>CustomersController</title>
<path fill="none" stroke="black" d="M-59.7173,107C-59.7173,107 49.7173,107 49.7173,107 55.7173,107 61.7173,101 61.7173,95 61.7173,95 61.7173,-97 61.7173,-97 61.7173,-103 55.7173,-109 49.7173,-109 49.7173,-109 -59.7173,-109 -59.7173,-109 -65.7173,-109 -71.7173,-103 -71.7173,-97 -71.7173,-97 -71.7173,95 -71.7173,95 -71.7173,101 -65.7173,107 -59.7173,107"/>
<text text-anchor="middle" x="-5" y="-93.8" font-family="Times,serif" font-size="14.00">CustomersController</text>
<polyline fill="none" stroke="black" points="-71.7173,-87 61.7173,-87 "/>
<text text-anchor="start" x="-63.7173" y="-71.8" font-family="Times,serif" font-size="14.00">create</text>
<text text-anchor="start" x="-63.7173" y="-57.8" font-family="Times,serif" font-size="14.00">destroy</text>
<text text-anchor="start" x="-63.7173" y="-43.8" font-family="Times,serif" font-size="14.00">edit</text>
<text text-anchor="start" x="-63.7173" y="-29.8" font-family="Times,serif" font-size="14.00">index</text>
<text text-anchor="start" x="-63.7173" y="-15.8" font-family="Times,serif" font-size="14.00">new</text>
<text text-anchor="start" x="-63.7173" y="-1.8" font-family="Times,serif" font-size="14.00">search</text>
<text text-anchor="start" x="-63.7173" y="12.2" font-family="Times,serif" font-size="14.00">show</text>
<text text-anchor="start" x="-63.7173" y="26.2" font-family="Times,serif" font-size="14.00">update</text>
<polyline fill="none" stroke="black" points="-71.7173,33 61.7173,33 "/>
<polyline fill="none" stroke="black" points="-71.7173,57 61.7173,57 "/>
<text text-anchor="start" x="-63.7173" y="72.2" font-family="Times,serif" font-size="14.00">_layout</text>
<text text-anchor="start" x="-63.7173" y="86.2" font-family="Times,serif" font-size="14.00">customer_params</text>
<text text-anchor="start" x="-63.7173" y="100.2" font-family="Times,serif" font-size="14.00">set_customer</text>
</g>
<!-- PartsController -->
<g id="node5" class="node"><title>PartsController</title>
<path fill="none" stroke="black" d="M174.228,-163C174.228,-163 251.772,-163 251.772,-163 257.772,-163 263.772,-169 263.772,-175 263.772,-175 263.772,-353 263.772,-353 263.772,-359 257.772,-365 251.772,-365 251.772,-365 174.228,-365 174.228,-365 168.228,-365 162.228,-359 162.228,-353 162.228,-353 162.228,-175 162.228,-175 162.228,-169 168.228,-163 174.228,-163"/>
<text text-anchor="middle" x="213" y="-349.8" font-family="Times,serif" font-size="14.00">PartsController</text>
<polyline fill="none" stroke="black" points="162.228,-343 263.772,-343 "/>
<text text-anchor="start" x="170.228" y="-327.8" font-family="Times,serif" font-size="14.00">create</text>
<text text-anchor="start" x="170.228" y="-313.8" font-family="Times,serif" font-size="14.00">destroy</text>
<text text-anchor="start" x="170.228" y="-299.8" font-family="Times,serif" font-size="14.00">edit</text>
<text text-anchor="start" x="170.228" y="-285.8" font-family="Times,serif" font-size="14.00">index</text>
<text text-anchor="start" x="170.228" y="-271.8" font-family="Times,serif" font-size="14.00">new</text>
<text text-anchor="start" x="170.228" y="-257.8" font-family="Times,serif" font-size="14.00">show</text>
<text text-anchor="start" x="170.228" y="-243.8" font-family="Times,serif" font-size="14.00">update</text>
<polyline fill="none" stroke="black" points="162.228,-237 263.772,-237 "/>
<polyline fill="none" stroke="black" points="162.228,-213 263.772,-213 "/>
<text text-anchor="start" x="170.228" y="-197.8" font-family="Times,serif" font-size="14.00">_layout</text>
<text text-anchor="start" x="170.228" y="-183.8" font-family="Times,serif" font-size="14.00">part_params</text>
<text text-anchor="start" x="170.228" y="-169.8" font-family="Times,serif" font-size="14.00">set_part</text>
</g>
<!-- ServicesController -->
<g id="node6" class="node"><title>ServicesController</title>
<path fill="none" stroke="black" d="M101.514,89C101.514,89 198.486,89 198.486,89 204.486,89 210.486,83 210.486,77 210.486,77 210.486,-115 210.486,-115 210.486,-121 204.486,-127 198.486,-127 198.486,-127 101.514,-127 101.514,-127 95.5137,-127 89.5137,-121 89.5137,-115 89.5137,-115 89.5137,77 89.5137,77 89.5137,83 95.5137,89 101.514,89"/>
<text text-anchor="middle" x="150" y="-111.8" font-family="Times,serif" font-size="14.00">ServicesController</text>
<polyline fill="none" stroke="black" points="89.5137,-105 210.486,-105 "/>
<text text-anchor="start" x="97.5137" y="-89.8" font-family="Times,serif" font-size="14.00">create</text>
<text text-anchor="start" x="97.5137" y="-75.8" font-family="Times,serif" font-size="14.00">destroy</text>
<text text-anchor="start" x="97.5137" y="-61.8" font-family="Times,serif" font-size="14.00">edit</text>
<text text-anchor="start" x="97.5137" y="-47.8" font-family="Times,serif" font-size="14.00">find_customer</text>
<text text-anchor="start" x="97.5137" y="-33.8" font-family="Times,serif" font-size="14.00">index</text>
<text text-anchor="start" x="97.5137" y="-19.8" font-family="Times,serif" font-size="14.00">new</text>
<text text-anchor="start" x="97.5137" y="-5.8" font-family="Times,serif" font-size="14.00">show</text>
<text text-anchor="start" x="97.5137" y="8.2" font-family="Times,serif" font-size="14.00">update</text>
<polyline fill="none" stroke="black" points="89.5137,15 210.486,15 "/>
<polyline fill="none" stroke="black" points="89.5137,39 210.486,39 "/>
<text text-anchor="start" x="97.5137" y="54.2" font-family="Times,serif" font-size="14.00">_layout</text>
<text text-anchor="start" x="97.5137" y="68.2" font-family="Times,serif" font-size="14.00">service_params</text>
<text text-anchor="start" x="97.5137" y="82.2" font-family="Times,serif" font-size="14.00">set_service</text>
</g>
<!-- UsersController -->
<g id="node7" class="node"><title>UsersController</title>
<path fill="none" stroke="black" d="M-185.714,-199C-185.714,-199 -104.286,-199 -104.286,-199 -98.2861,-199 -92.2861,-205 -92.2861,-211 -92.2861,-211 -92.2861,-389 -92.2861,-389 -92.2861,-395 -98.2861,-401 -104.286,-401 -104.286,-401 -185.714,-401 -185.714,-401 -191.714,-401 -197.714,-395 -197.714,-389 -197.714,-389 -197.714,-211 -197.714,-211 -197.714,-205 -191.714,-199 -185.714,-199"/>
<text text-anchor="middle" x="-145" y="-385.8" font-family="Times,serif" font-size="14.00">UsersController</text>
<polyline fill="none" stroke="black" points="-197.714,-379 -92.2861,-379 "/>
<text text-anchor="start" x="-189.714" y="-363.8" font-family="Times,serif" font-size="14.00">create</text>
<text text-anchor="start" x="-189.714" y="-349.8" font-family="Times,serif" font-size="14.00">destroy</text>
<text text-anchor="start" x="-189.714" y="-335.8" font-family="Times,serif" font-size="14.00">edit</text>
<text text-anchor="start" x="-189.714" y="-321.8" font-family="Times,serif" font-size="14.00">index</text>
<text text-anchor="start" x="-189.714" y="-307.8" font-family="Times,serif" font-size="14.00">new</text>
<text text-anchor="start" x="-189.714" y="-293.8" font-family="Times,serif" font-size="14.00">show</text>
<text text-anchor="start" x="-189.714" y="-279.8" font-family="Times,serif" font-size="14.00">update</text>
<polyline fill="none" stroke="black" points="-197.714,-273 -92.2861,-273 "/>
<polyline fill="none" stroke="black" points="-197.714,-249 -92.2861,-249 "/>
<text text-anchor="start" x="-189.714" y="-233.8" font-family="Times,serif" font-size="14.00">_layout</text>
<text text-anchor="start" x="-189.714" y="-219.8" font-family="Times,serif" font-size="14.00">set_user</text>
<text text-anchor="start" x="-189.714" y="-205.8" font-family="Times,serif" font-size="14.00">user_params</text>
</g>
</g>
</svg>
