<?xml version="1.0" encoding="UTF-8" standalone="no"?>
<!DOCTYPE svg PUBLIC "-//W3C//DTD SVG 1.1//EN"
 "http://www.w3.org/Graphics/SVG/1.1/DTD/svg11.dtd">
<!-- Generated by graphviz version 2.38.0 (20140413.2041)
 -->
<!-- Title: models_diagram Pages: 1 -->
<svg width="1012pt" height="467pt"
 viewBox="0.00 0.00 1012.31 467.00" xmlns="http://www.w3.org/2000/svg" xmlns:xlink="http://www.w3.org/1999/xlink">
<g id="graph0" class="graph" transform="scale(1 1) rotate(0) translate(4 463)">
<title>models_diagram</title>
<polygon fill="none" stroke="none" points="-4,4 -4,-463 1008.31,-463 1008.31,4 -4,4"/>
<!-- _diagram_info -->
<g id="node1" class="node"><title>_diagram_info</title>
<text text-anchor="start" x="8" y="-416.6" font-family="Times,serif" font-size="13.00">Models diagram</text>
<text text-anchor="start" x="8" y="-403.6" font-family="Times,serif" font-size="13.00">Date: Nov 20 2015 &#45; 14:02</text>
<text text-anchor="start" x="8" y="-390.6" font-family="Times,serif" font-size="13.00">Migration version: 20151120125557</text>
<text text-anchor="start" x="8" y="-377.6" font-family="Times,serif" font-size="13.00">Generated by RailRoady 1.4.1</text>
<text text-anchor="start" x="8" y="-364.6" font-family="Times,serif" font-size="13.00">http://railroady.prestonlee.com</text>
</g>
<!-- Bike -->
<g id="node2" class="node"><title>Bike</title>
<path fill="none" stroke="black" d="M236.587,-165.5C236.587,-165.5 460.312,-165.5 460.312,-165.5 466.312,-165.5 472.312,-171.5 472.312,-177.5 472.312,-177.5 472.312,-281.5 472.312,-281.5 472.312,-287.5 466.312,-293.5 460.312,-293.5 460.312,-293.5 236.587,-293.5 236.587,-293.5 230.587,-293.5 224.587,-287.5 224.587,-281.5 224.587,-281.5 224.587,-177.5 224.587,-177.5 224.587,-171.5 230.587,-165.5 236.587,-165.5"/>
<text text-anchor="middle" x="348.45" y="-278.3" font-family="Times,serif" font-size="14.00">Bike</text>
<polyline fill="none" stroke="black" points="224.587,-271.5 472.312,-271.5 "/>
<text text-anchor="start" x="232.587" y="-256.3" font-family="Times,serif" font-size="14.00">id :integer</text>
<text text-anchor="start" x="232.587" y="-242.3" font-family="Times,serif" font-size="14.00">brand :character varying</text>
<text text-anchor="start" x="232.587" y="-228.3" font-family="Times,serif" font-size="14.00">model :character varying</text>
<text text-anchor="start" x="232.587" y="-214.3" font-family="Times,serif" font-size="14.00">year :character varying</text>
<text text-anchor="start" x="232.587" y="-200.3" font-family="Times,serif" font-size="14.00">created_at :timestamp without time zone</text>
<text text-anchor="start" x="232.587" y="-186.3" font-family="Times,serif" font-size="14.00">updated_at :timestamp without time zone</text>
<text text-anchor="start" x="232.587" y="-172.3" font-family="Times,serif" font-size="14.00">customer_id :integer</text>
</g>
<!-- Part -->
<g id="node4" class="node"><title>Part</title>
<path fill="none" stroke="black" d="M236.587,-0.5C236.587,-0.5 460.312,-0.5 460.312,-0.5 466.312,-0.5 472.312,-6.5 472.312,-12.5 472.312,-12.5 472.312,-116.5 472.312,-116.5 472.312,-122.5 466.312,-128.5 460.312,-128.5 460.312,-128.5 236.587,-128.5 236.587,-128.5 230.587,-128.5 224.587,-122.5 224.587,-116.5 224.587,-116.5 224.587,-12.5 224.587,-12.5 224.587,-6.5 230.587,-0.5 236.587,-0.5"/>
<text text-anchor="middle" x="348.45" y="-113.3" font-family="Times,serif" font-size="14.00">Part</text>
<polyline fill="none" stroke="black" points="224.587,-106.5 472.312,-106.5 "/>
<text text-anchor="start" x="232.587" y="-91.3" font-family="Times,serif" font-size="14.00">id :integer</text>
<text text-anchor="start" x="232.587" y="-77.3" font-family="Times,serif" font-size="14.00">brand :character varying</text>
<text text-anchor="start" x="232.587" y="-63.3" font-family="Times,serif" font-size="14.00">model :character varying</text>
<text text-anchor="start" x="232.587" y="-49.3" font-family="Times,serif" font-size="14.00">year :integer</text>
<text text-anchor="start" x="232.587" y="-35.3" font-family="Times,serif" font-size="14.00">note :text</text>
<text text-anchor="start" x="232.587" y="-21.3" font-family="Times,serif" font-size="14.00">created_at :timestamp without time zone</text>
<text text-anchor="start" x="232.587" y="-7.3" font-family="Times,serif" font-size="14.00">updated_at :timestamp without time zone</text>
</g>
<!-- Bike&#45;&gt;Part -->
<g id="edge1" class="edge"><title>Bike&#45;&gt;Part</title>
<path fill="none" stroke="#e96bab" d="M348.45,-155.454C348.45,-149.998 348.45,-144.491 348.45,-139.033"/>
<polygon fill="#e96bab" stroke="#e96bab" points="348.45,-155.48 343.95,-165.48 348.45,-160.48 348.45,-165.48 348.45,-165.48 348.45,-165.48 348.45,-160.48 352.95,-165.48 348.45,-155.48 348.45,-155.48"/>
<polygon fill="#e96bab" stroke="#e96bab" points="348.45,-138.621 352.95,-128.621 348.45,-133.621 348.45,-128.621 348.45,-128.621 348.45,-128.621 348.45,-133.621 343.95,-128.621 348.45,-138.621 348.45,-138.621"/>
</g>
<!-- Customer -->
<g id="node3" class="node"><title>Customer</title>
<path fill="none" stroke="black" d="M236.587,-330.5C236.587,-330.5 460.312,-330.5 460.312,-330.5 466.312,-330.5 472.312,-336.5 472.312,-342.5 472.312,-342.5 472.312,-446.5 472.312,-446.5 472.312,-452.5 466.312,-458.5 460.312,-458.5 460.312,-458.5 236.587,-458.5 236.587,-458.5 230.587,-458.5 224.587,-452.5 224.587,-446.5 224.587,-446.5 224.587,-342.5 224.587,-342.5 224.587,-336.5 230.587,-330.5 236.587,-330.5"/>
<text text-anchor="middle" x="348.45" y="-443.3" font-family="Times,serif" font-size="14.00">Customer</text>
<polyline fill="none" stroke="black" points="224.587,-436.5 472.312,-436.5 "/>
<text text-anchor="start" x="232.587" y="-421.3" font-family="Times,serif" font-size="14.00">id :integer</text>
<text text-anchor="start" x="232.587" y="-407.3" font-family="Times,serif" font-size="14.00">first_name :character varying</text>
<text text-anchor="start" x="232.587" y="-393.3" font-family="Times,serif" font-size="14.00">last_name :character varying</text>
<text text-anchor="start" x="232.587" y="-379.3" font-family="Times,serif" font-size="14.00">mobile :character varying</text>
<text text-anchor="start" x="232.587" y="-365.3" font-family="Times,serif" font-size="14.00">email :character varying</text>
<text text-anchor="start" x="232.587" y="-351.3" font-family="Times,serif" font-size="14.00">created_at :timestamp without time zone</text>
<text text-anchor="start" x="232.587" y="-337.3" font-family="Times,serif" font-size="14.00">updated_at :timestamp without time zone</text>
</g>
<!-- Customer&#45;&gt;Bike -->
<g id="edge2" class="edge"><title>Customer&#45;&gt;Bike</title>
<path fill="none" stroke="#e97601" d="M348.45,-322.473C348.45,-316.322 348.45,-310.09 348.45,-303.92"/>
<ellipse fill="none" stroke="#e97601" cx="348.45" cy="-326.48" rx="4" ry="4"/>
<polygon fill="#e97601" stroke="#e97601" points="348.45,-303.621 352.95,-293.621 348.45,-298.621 348.45,-293.621 348.45,-293.621 348.45,-293.621 348.45,-298.621 343.95,-293.621 348.45,-303.621 348.45,-303.621"/>
</g>
<!-- Service -->
<g id="node5" class="node"><title>Service</title>
<path fill="none" stroke="black" d="M502.587,-330.5C502.587,-330.5 726.312,-330.5 726.312,-330.5 732.312,-330.5 738.312,-336.5 738.312,-342.5 738.312,-342.5 738.312,-446.5 738.312,-446.5 738.312,-452.5 732.312,-458.5 726.312,-458.5 726.312,-458.5 502.587,-458.5 502.587,-458.5 496.587,-458.5 490.587,-452.5 490.587,-446.5 490.587,-446.5 490.587,-342.5 490.587,-342.5 490.587,-336.5 496.587,-330.5 502.587,-330.5"/>
<text text-anchor="middle" x="614.45" y="-443.3" font-family="Times,serif" font-size="14.00">Service</text>
<polyline fill="none" stroke="black" points="490.587,-436.5 738.312,-436.5 "/>
<text text-anchor="start" x="498.587" y="-421.3" font-family="Times,serif" font-size="14.00">id :integer</text>
<text text-anchor="start" x="498.587" y="-407.3" font-family="Times,serif" font-size="14.00">description :character varying</text>
<text text-anchor="start" x="498.587" y="-393.3" font-family="Times,serif" font-size="14.00">log :character varying</text>
<text text-anchor="start" x="498.587" y="-379.3" font-family="Times,serif" font-size="14.00">due_date :date</text>
<text text-anchor="start" x="498.587" y="-365.3" font-family="Times,serif" font-size="14.00">bike_id :integer</text>
<text text-anchor="start" x="498.587" y="-351.3" font-family="Times,serif" font-size="14.00">created_at :timestamp without time zone</text>
<text text-anchor="start" x="498.587" y="-337.3" font-family="Times,serif" font-size="14.00">updated_at :timestamp without time zone</text>
</g>
<!-- User -->
<g id="node6" class="node"><title>User</title>
<path fill="none" stroke="black" d="M768.587,-330.5C768.587,-330.5 992.312,-330.5 992.312,-330.5 998.312,-330.5 1004.31,-336.5 1004.31,-342.5 1004.31,-342.5 1004.31,-446.5 1004.31,-446.5 1004.31,-452.5 998.312,-458.5 992.312,-458.5 992.312,-458.5 768.587,-458.5 768.587,-458.5 762.587,-458.5 756.587,-452.5 756.587,-446.5 756.587,-446.5 756.587,-342.5 756.587,-342.5 756.587,-336.5 762.587,-330.5 768.587,-330.5"/>
<text text-anchor="middle" x="880.45" y="-443.3" font-family="Times,serif" font-size="14.00">User</text>
<polyline fill="none" stroke="black" points="756.587,-436.5 1004.31,-436.5 "/>
<text text-anchor="start" x="764.587" y="-421.3" font-family="Times,serif" font-size="14.00">id :integer</text>
<text text-anchor="start" x="764.587" y="-407.3" font-family="Times,serif" font-size="14.00">first_name :character varying</text>
<text text-anchor="start" x="764.587" y="-393.3" font-family="Times,serif" font-size="14.00">last_name :character varying</text>
<text text-anchor="start" x="764.587" y="-379.3" font-family="Times,serif" font-size="14.00">email :character varying</text>
<text text-anchor="start" x="764.587" y="-365.3" font-family="Times,serif" font-size="14.00">mobile :character varying</text>
<text text-anchor="start" x="764.587" y="-351.3" font-family="Times,serif" font-size="14.00">created_at :timestamp without time zone</text>
<text text-anchor="start" x="764.587" y="-337.3" font-family="Times,serif" font-size="14.00">updated_at :timestamp without time zone</text>
</g>
</g>
</svg>
