<?xml version="1.0" encoding="UTF-8" standalone="no"?>
<!DOCTYPE svg PUBLIC "-//W3C//DTD SVG 1.1//EN"
 "http://www.w3.org/Graphics/SVG/1.1/DTD/svg11.dtd">
<!-- Generated by graphviz version 2.38.0 (20140413.2041)
 -->
<!-- Title: models_diagram Pages: 1 -->
<svg width="1278pt" height="137pt"
 viewBox="0.00 0.00 1278.07 137.00" xmlns="http://www.w3.org/2000/svg" xmlns:xlink="http://www.w3.org/1999/xlink">
<g id="graph0" class="graph" transform="scale(1 1) rotate(0) translate(4 133)">
<title>models_diagram</title>
<polygon fill="none" stroke="none" points="-4,4 -4,-133 1274.07,-133 1274.07,4 -4,4"/>
<!-- _diagram_info -->
<g id="node1" class="node"><title>_diagram_info</title>
<text text-anchor="start" x="8" y="-86.6" font-family="Times,serif" font-size="13.00">Models diagram</text>
<text text-anchor="start" x="8" y="-73.6" font-family="Times,serif" font-size="13.00">Date: Nov 20 2015 &#45; 11:36</text>
<text text-anchor="start" x="8" y="-60.6" font-family="Times,serif" font-size="13.00">Migration version: 20151112162236</text>
<text text-anchor="start" x="8" y="-47.6" font-family="Times,serif" font-size="13.00">Generated by RailRoady 1.4.1</text>
<text text-anchor="start" x="8" y="-34.6" font-family="Times,serif" font-size="13.00">http://railroady.prestonlee.com</text>
</g>
<!-- Bike -->
<g id="node2" class="node"><title>Bike</title>
<path fill="none" stroke="black" d="M236.349,-7.5C236.349,-7.5 460.074,-7.5 460.074,-7.5 466.074,-7.5 472.074,-13.5 472.074,-19.5 472.074,-19.5 472.074,-109.5 472.074,-109.5 472.074,-115.5 466.074,-121.5 460.074,-121.5 460.074,-121.5 236.349,-121.5 236.349,-121.5 230.349,-121.5 224.349,-115.5 224.349,-109.5 224.349,-109.5 224.349,-19.5 224.349,-19.5 224.349,-13.5 230.349,-7.5 236.349,-7.5"/>
<text text-anchor="middle" x="348.212" y="-106.3" font-family="Times,serif" font-size="14.00">Bike</text>
<polyline fill="none" stroke="black" points="224.349,-99.5 472.074,-99.5 "/>
<text text-anchor="start" x="232.349" y="-84.3" font-family="Times,serif" font-size="14.00">id :integer</text>
<text text-anchor="start" x="232.349" y="-70.3" font-family="Times,serif" font-size="14.00">brand :character varying</text>
<text text-anchor="start" x="232.349" y="-56.3" font-family="Times,serif" font-size="14.00">model :character varying</text>
<text text-anchor="start" x="232.349" y="-42.3" font-family="Times,serif" font-size="14.00">year :character varying</text>
<text text-anchor="start" x="232.349" y="-28.3" font-family="Times,serif" font-size="14.00">created_at :timestamp without time zone</text>
<text text-anchor="start" x="232.349" y="-14.3" font-family="Times,serif" font-size="14.00">updated_at :timestamp without time zone</text>
</g>
<!-- Customer -->
<g id="node3" class="node"><title>Customer</title>
<path fill="none" stroke="black" d="M502.349,-0.5C502.349,-0.5 726.074,-0.5 726.074,-0.5 732.074,-0.5 738.074,-6.5 738.074,-12.5 738.074,-12.5 738.074,-116.5 738.074,-116.5 738.074,-122.5 732.074,-128.5 726.074,-128.5 726.074,-128.5 502.349,-128.5 502.349,-128.5 496.349,-128.5 490.349,-122.5 490.349,-116.5 490.349,-116.5 490.349,-12.5 490.349,-12.5 490.349,-6.5 496.349,-0.5 502.349,-0.5"/>
<text text-anchor="middle" x="614.212" y="-113.3" font-family="Times,serif" font-size="14.00">Customer</text>
<polyline fill="none" stroke="black" points="490.349,-106.5 738.074,-106.5 "/>
<text text-anchor="start" x="498.349" y="-91.3" font-family="Times,serif" font-size="14.00">id :integer</text>
<text text-anchor="start" x="498.349" y="-77.3" font-family="Times,serif" font-size="14.00">first_name :character varying</text>
<text text-anchor="start" x="498.349" y="-63.3" font-family="Times,serif" font-size="14.00">last_name :character varying</text>
<text text-anchor="start" x="498.349" y="-49.3" font-family="Times,serif" font-size="14.00">mobile :character varying</text>
<text text-anchor="start" x="498.349" y="-35.3" font-family="Times,serif" font-size="14.00">email :character varying</text>
<text text-anchor="start" x="498.349" y="-21.3" font-family="Times,serif" font-size="14.00">created_at :timestamp without time zone</text>
<text text-anchor="start" x="498.349" y="-7.3" font-family="Times,serif" font-size="14.00">updated_at :timestamp without time zone</text>
</g>
<!-- Service -->
<g id="node4" class="node"><title>Service</title>
<path fill="none" stroke="black" d="M768.349,-0.5C768.349,-0.5 992.074,-0.5 992.074,-0.5 998.074,-0.5 1004.07,-6.5 1004.07,-12.5 1004.07,-12.5 1004.07,-116.5 1004.07,-116.5 1004.07,-122.5 998.074,-128.5 992.074,-128.5 992.074,-128.5 768.349,-128.5 768.349,-128.5 762.349,-128.5 756.349,-122.5 756.349,-116.5 756.349,-116.5 756.349,-12.5 756.349,-12.5 756.349,-6.5 762.349,-0.5 768.349,-0.5"/>
<text text-anchor="middle" x="880.212" y="-113.3" font-family="Times,serif" font-size="14.00">Service</text>
<polyline fill="none" stroke="black" points="756.349,-106.5 1004.07,-106.5 "/>
<text text-anchor="start" x="764.349" y="-91.3" font-family="Times,serif" font-size="14.00">id :integer</text>
<text text-anchor="start" x="764.349" y="-77.3" font-family="Times,serif" font-size="14.00">description :character varying</text>
<text text-anchor="start" x="764.349" y="-63.3" font-family="Times,serif" font-size="14.00">log :character varying</text>
<text text-anchor="start" x="764.349" y="-49.3" font-family="Times,serif" font-size="14.00">due_date :date</text>
<text text-anchor="start" x="764.349" y="-35.3" font-family="Times,serif" font-size="14.00">bike_id :integer</text>
<text text-anchor="start" x="764.349" y="-21.3" font-family="Times,serif" font-size="14.00">created_at :timestamp without time zone</text>
<text text-anchor="start" x="764.349" y="-7.3" font-family="Times,serif" font-size="14.00">updated_at :timestamp without time zone</text>
</g>
<!-- User -->
<g id="node5" class="node"><title>User</title>
<path fill="none" stroke="black" d="M1034.35,-0.5C1034.35,-0.5 1258.07,-0.5 1258.07,-0.5 1264.07,-0.5 1270.07,-6.5 1270.07,-12.5 1270.07,-12.5 1270.07,-116.5 1270.07,-116.5 1270.07,-122.5 1264.07,-128.5 1258.07,-128.5 1258.07,-128.5 1034.35,-128.5 1034.35,-128.5 1028.35,-128.5 1022.35,-122.5 1022.35,-116.5 1022.35,-116.5 1022.35,-12.5 1022.35,-12.5 1022.35,-6.5 1028.35,-0.5 1034.35,-0.5"/>
<text text-anchor="middle" x="1146.21" y="-113.3" font-family="Times,serif" font-size="14.00">User</text>
<polyline fill="none" stroke="black" points="1022.35,-106.5 1270.07,-106.5 "/>
<text text-anchor="start" x="1030.35" y="-91.3" font-family="Times,serif" font-size="14.00">id :integer</text>
<text text-anchor="start" x="1030.35" y="-77.3" font-family="Times,serif" font-size="14.00">first_name :character varying</text>
<text text-anchor="start" x="1030.35" y="-63.3" font-family="Times,serif" font-size="14.00">last_name :character varying</text>
<text text-anchor="start" x="1030.35" y="-49.3" font-family="Times,serif" font-size="14.00">email :character varying</text>
<text text-anchor="start" x="1030.35" y="-35.3" font-family="Times,serif" font-size="14.00">mobile :character varying</text>
<text text-anchor="start" x="1030.35" y="-21.3" font-family="Times,serif" font-size="14.00">created_at :timestamp without time zone</text>
<text text-anchor="start" x="1030.35" y="-7.3" font-family="Times,serif" font-size="14.00">updated_at :timestamp without time zone</text>
</g>
</g>
</svg>
