<?xml version="1.0" encoding="UTF-8" standalone="no"?>
<!DOCTYPE svg PUBLIC "-//W3C//DTD SVG 1.1//EN"
 "http://www.w3.org/Graphics/SVG/1.1/DTD/svg11.dtd">
<!-- Generated by graphviz version 2.38.0 (20140413.2041)
 -->
<!-- Title: models_diagram Pages: 1 -->
<svg width="485pt" height="225pt"
 viewBox="0.00 0.00 485.45 225.00" xmlns="http://www.w3.org/2000/svg" xmlns:xlink="http://www.w3.org/1999/xlink">
<g id="graph0" class="graph" transform="scale(1 1) rotate(0) translate(4 221)">
<title>models_diagram</title>
<polygon fill="none" stroke="none" points="-4,4 -4,-221 481.45,-221 481.45,4 -4,4"/>
<!-- _diagram_info -->
<g id="node1" class="node"><title>_diagram_info</title>
<text text-anchor="start" x="8" y="-202.6" font-family="Times,serif" font-size="13.00">Models diagram</text>
<text text-anchor="start" x="8" y="-189.6" font-family="Times,serif" font-size="13.00">Date: Nov 20 2015 &#45; 14:02</text>
<text text-anchor="start" x="8" y="-176.6" font-family="Times,serif" font-size="13.00">Migration version: 20151120125557</text>
<text text-anchor="start" x="8" y="-163.6" font-family="Times,serif" font-size="13.00">Generated by RailRoady 1.4.1</text>
<text text-anchor="start" x="8" y="-150.6" font-family="Times,serif" font-size="13.00">http://railroady.prestonlee.com</text>
</g>
<!-- Bike -->
<g id="node2" class="node"><title>Bike</title>
<ellipse fill="none" stroke="black" cx="269.45" cy="-90" rx="27" ry="18"/>
<text text-anchor="middle" x="269.45" y="-85.8" font-family="Times,serif" font-size="14.00">Bike</text>
</g>
<!-- Part -->
<g id="node4" class="node"><title>Part</title>
<ellipse fill="none" stroke="black" cx="269.45" cy="-18" rx="27" ry="18"/>
<text text-anchor="middle" x="269.45" y="-13.8" font-family="Times,serif" font-size="14.00">Part</text>
</g>
<!-- Bike&#45;&gt;Part -->
<g id="edge1" class="edge"><title>Bike&#45;&gt;Part</title>
<path fill="none" stroke="#539c45" d="M269.45,-61.6651C269.45,-56.6867 269.45,-51.4906 269.45,-46.5072"/>
<polygon fill="#539c45" stroke="#539c45" points="269.45,-61.6966 264.95,-71.6966 269.45,-66.6966 269.45,-71.6966 269.45,-71.6966 269.45,-71.6966 269.45,-66.6966 273.95,-71.6967 269.45,-61.6966 269.45,-61.6966"/>
<polygon fill="#539c45" stroke="#539c45" points="269.45,-46.1043 273.95,-36.1043 269.45,-41.1043 269.45,-36.1043 269.45,-36.1043 269.45,-36.1043 269.45,-41.1043 264.95,-36.1044 269.45,-46.1043 269.45,-46.1043"/>
</g>
<!-- Customer -->
<g id="node3" class="node"><title>Customer</title>
<ellipse fill="none" stroke="black" cx="269.45" cy="-180.5" rx="44.4923" ry="18"/>
<text text-anchor="middle" x="269.45" y="-176.3" font-family="Times,serif" font-size="14.00">Customer</text>
</g>
<!-- Customer&#45;&gt;Bike -->
<g id="edge2" class="edge"><title>Customer&#45;&gt;Bike</title>
<path fill="none" stroke="#2db8f1" d="M269.45,-154.189C269.45,-142.971 269.45,-129.752 269.45,-118.311"/>
<ellipse fill="none" stroke="#2db8f1" cx="269.45" cy="-158.436" rx="4" ry="4"/>
<polygon fill="#2db8f1" stroke="#2db8f1" points="269.45,-118.011 273.95,-108.011 269.45,-113.011 269.45,-108.011 269.45,-108.011 269.45,-108.011 269.45,-113.011 264.95,-108.011 269.45,-118.011 269.45,-118.011"/>
</g>
<!-- Service -->
<g id="node5" class="node"><title>Service</title>
<ellipse fill="none" stroke="black" cx="368.45" cy="-180.5" rx="36.7489" ry="18"/>
<text text-anchor="middle" x="368.45" y="-176.3" font-family="Times,serif" font-size="14.00">Service</text>
</g>
<!-- User -->
<g id="node6" class="node"><title>User</title>
<ellipse fill="none" stroke="black" cx="450.45" cy="-180.5" rx="27" ry="18"/>
<text text-anchor="middle" x="450.45" y="-176.3" font-family="Times,serif" font-size="14.00">User</text>
</g>
</g>
</svg>
